<svg width="121" height="119" viewBox="0 0 121 119" xmlns="http://www.w3.org/2000/svg"><path d="M60.61.445C27.26.445.22 27.48.22 60.833c0 26.68 17.304 49.317 41.298 57.302 3.018.56 4.126-1.31 4.126-2.905 0-1.44-.056-6.197-.082-11.243-16.8 3.653-20.345-7.125-20.345-7.125-2.747-6.98-6.705-8.836-6.705-8.836-5.48-3.748.413-3.67.413-3.67 6.064.425 9.257 6.222 9.257 6.222 5.386 9.232 14.127 6.563 17.573 5.02.542-3.903 2.107-6.567 3.834-8.075-13.414-1.527-27.514-6.705-27.514-29.844 0-6.594 2.36-11.98 6.222-16.21-.627-1.52-2.694-7.663.585-15.98 0 0 5.07-1.624 16.61 6.19 4.818-1.34 9.984-2.01 15.116-2.033 5.13.023 10.3.694 15.127 2.032 11.526-7.814 16.59-6.19 16.59-6.19 3.287 8.317 1.22 14.46.592 15.98 3.87 4.23 6.214 9.616 6.214 16.21 0 23.193-14.127 28.3-27.574 29.795 2.166 1.874 4.096 5.55 4.096 11.183 0 8.08-.07 14.583-.07 16.572 0 1.607 1.087 3.49 4.148 2.897 23.98-7.994 41.262-30.622 41.262-57.294C120.996 27.48 93.96.445 60.61.445"/><path d="M23.093 87.15c-.133.3-.605.39-1.035.183-.438-.197-.684-.606-.542-.907.13-.31.603-.395 1.04-.188.44.197.69.61.537.91"/><path d="M25.54 89.877c-.29.267-.852.143-1.234-.28-.395-.42-.47-.983-.177-1.254.296-.267.842-.142 1.238.28.395.425.472.984.17 1.254"/><path d="M27.92 93.355c-.37.257-.975.016-1.35-.52-.37-.538-.37-1.182.01-1.44.374-.258.97-.026 1.35.507.368.546.368 1.19-.01 1.453"/><path d="M31.182 96.715c-.33.365-1.036.267-1.552-.23-.528-.488-.675-1.18-.343-1.544.335-.365 1.044-.262 1.564.232.525.486.685 1.182.332 1.543"/><path d="M35.682 98.666c-.146.473-.825.688-1.51.487-.682-.207-1.13-.76-.99-1.24.14-.475.823-.7 1.512-.484.682.205 1.13.755.988 1.236"/><path d="M40.624 99.028c.017.498-.563.91-1.28.92-.723.016-1.307-.387-1.315-.877 0-.502.566-.91 1.288-.923.718-.014 1.306.386 1.306.88"/><path d="M45.223 98.245c.086.486-.413.985-1.126 1.118-.7.128-1.35-.172-1.44-.654-.086-.5.422-.998 1.122-1.127.713-.124 1.352.168 1.443.662"/></svg>