<svg xmlns="http://www.w3.org/2000/svg" width="56.693" height="56.693" viewBox="0 0 56.693 56.693"><path d="M28.347 5.155c-13.6 0-24.625 11.025-24.625 24.625 0 13.602 11.024 24.625 24.625 24.625 13.6 0 24.625-11.023 24.625-24.625 0-13.6-11.026-24.625-24.625-24.625zm9.59 35.008c-3.354-.012-5.494-1.53-6.953-4.928l-.37-.826-3.226-7.353c-1.035-2.52-3.645-4.215-6.494-4.215-3.912 0-7.094 3.186-7.094 7.098 0 3.914 3.183 7.1 7.094 7.1 2.652 0 5.064-1.463 6.295-3.81.042-.083.128-.136.22-.13.094.002.176.057.213.143l1.303 3.008c.035.085.02.18-.035.25-1.97 2.4-4.886 3.778-7.995 3.778-5.7 0-10.338-4.64-10.338-10.338 0-5.7 4.638-10.34 10.338-10.34 4.316 0 7.8 2.324 9.555 6.374.018.043 1.768 4.14 3.305 7.646.908 2.072 1.633 3.334 4.018 3.414 2.277.082 3.945-1.25 3.945-3.102 0-1.643-1.02-2.053-3.334-2.822-3.992-1.316-6.156-2.658-6.156-5.973 0-3.24 2.236-5.334 5.7-5.334 2.272 0 3.94.998 5.1 3.055.03.057.038.125.02.188-.02.06-.063.115-.122.145l-2.158 1.105c-.105.055-.236.02-.305-.074-.736-1.028-1.555-1.487-2.656-1.487-1.436 0-2.48.98-2.48 2.33 0 1.666 1.292 2.072 3.43 2.744.28.086.573.182.874.28 3.358 1.095 5.304 2.413 5.304 5.933-.003 3.502-3.01 6.143-6.997 6.143z"/></svg>