<svg xmlns="http://www.w3.org/2000/svg" width="56.693" height="56.693" viewBox="0 0 56.693 56.693"><path d="M45.05 26.615c-.43-.14-.845-.27-1.245-.398-3.057-.96-4.9-1.54-4.9-3.92 0-1.93 1.488-3.33 3.54-3.33 1.573 0 2.745.653 3.796 2.124.1.138.284.187.437.106l3.084-1.574c.085-.04.147-.117.173-.207.027-.09.018-.186-.03-.268-1.65-2.936-4.034-4.363-7.284-4.363-4.946 0-8.144 2.992-8.144 7.622 0 4.734 3.092 6.65 8.795 8.527 3.306 1.102 4.767 1.686 4.767 4.037 0 2.643-2.383 4.543-5.637 4.432-3.408-.115-4.44-1.922-5.74-4.88-2.197-5.013-4.697-10.864-4.72-10.92-2.51-5.79-7.485-9.11-13.65-9.11-8.144 0-14.77 6.628-14.77 14.775 0 8.143 6.626 14.77 14.77 14.77 4.442 0 8.606-1.97 11.422-5.404.082-.1.102-.234.05-.354L27.9 33.98c-.053-.12-.172-.2-.303-.205-.135-.006-.256.068-.316.184-1.757 3.36-5.202 5.446-8.992 5.446-5.59 0-10.135-4.547-10.135-10.14S12.7 19.13 18.29 19.13c4.068 0 7.796 2.415 9.277 6.018l4.605 10.504.53 1.18c2.083 4.85 5.142 7.023 9.933 7.04 5.697 0 9.992-3.774 9.992-8.778 0-5.028-2.78-6.912-7.576-8.477z"/></svg>