<svg width="479" height="399" viewBox="0 0 479 399" xmlns="http://www.w3.org/2000/svg"><title>Medium Icon Colored</title><desc>Created with Sketch.</desc><g fill="none"><path d="M310.93 14.335c0-7.73 5.932-11.968 13.24-9.472L479 57.74v331.404c0 7.73-5.664 11.293-12.633 7.97L310.93 323V14.335z" fill="#32FC8D"/><path d="M313.563 6.578c1.608-2.64 5.288-3.963 8.204-2.96L479 57.742 310.93 323.477l-92.44-160.84L313.564 6.578z" fill="#0BE370"/><path fill="#14C767" d="M168.07 63.336l142.86 260.14-142.86-69.93z"/><path d="M0 10.49C0 2.754 5.822-1.19 12.996 1.676L168.07 63.62v321.667c0 7.73-5.64 11.274-12.615 7.907l-142.84-68.94C5.648 320.89 0 311.9 0 304.16V10.49z" fill="#00AB6C"/></g></svg>